# File created by Blade
# Date/Time:  Wed Jan 21 18:40:15 2015
#---------------------------------------------------------
:version 1.10
:name HOM
:units
  mass 1.0
  length 1.000000
  angle deg
:documentation
     Acclaim Skeleton File
:root
   axis xyz
   order TX TY TZ RX RY RZ
   position 0.000000 0.000000 0.000000
   orientation 0 0 0
:bonedata
   begin
      id 1
      name RightUpLeg_dum
      direction -1.000000 0.000000 0.000000
      length 3.693983
      axis 0.0 0.0 0.0 xyz
   end
   begin
      id 2
      name LeftUpLeg_dum
      direction 1.000000 0.000000 0.000000
      length 3.693983
      axis 0.0 0.0 0.0 xyz
   end
   begin
      id 3
      name Spine_dum
      direction 0.000000 1.000000 0.000000
      length 2.392956
      axis 0.0 0.0 0.0 xyz
   end
   begin
      id 4
      name RightUpLeg
      direction 0.000000 -1.000000 0.000000
      length 15.795667
      axis 0.0 0.0 0.0 xyz
      dof rx ry rz
   end
   begin
      id 5
      name RightLeg
      direction 0.000000 -1.000000 0.000000
      length 14.766989
      axis 0.0 0.0 0.0 xyz
      dof rx ry rz
   end
   begin
      id 6
      name RightFoot
      direction 0.000000 -0.258819 0.965926
      length 4.962790
      axis 15.0 0.0 0.0 xyz
      dof rx ry rz
   end
   begin
      id 7
      name RightToeBase
      direction 0.000000 0.000000 1.000000
      length 2.952750
      axis 0.0 0.0 0.0 xyz
      dof rx ry rz
   end
   begin
      id 8
      name LeftUpLeg
      direction 0.000000 -1.000000 0.000000
      length 15.795667
      axis 0.0 0.0 0.0 xyz
      dof rx ry rz
   end
   begin
      id 9
      name LeftLeg
      direction 0.000000 -1.000000 0.000000
      length 14.766989
      axis 0.0 0.0 0.0 xyz
      dof rx ry rz
   end
   begin
      id 10
      name LeftFoot
      direction 0.000000 -0.258819 0.965926
      length 4.962790
      axis 15.0 0.0 0.0 xyz
      dof rx ry rz
   end
   begin
      id 11
      name LeftToeBase
      direction 0.000000 0.000000 1.000000
      length 2.952750
      axis 0.0 0.0 0.0 xyz
      dof rx ry rz
   end
   begin
      id 12
      name Spine
      direction 0.000000 1.000000 0.000000
      length 0.000000
      axis 0.0 0.0 0.0 xyz
      dof rx ry rz
   end
   begin
      id 13
      name Spine_dum1
      direction 0.000000 1.000000 0.000000
      length 13.207411
      axis 0.0 0.0 0.0 xyz
   end
   begin
      id 14
      name Spine_dum2
      direction 0.000000 1.000000 0.000000
      length 13.207411
      axis 0.0 0.0 0.0 xyz
   end
   begin
      id 15
      name Spine_dum3
      direction 0.000000 1.000000 0.000000
      length 19.250100
      axis 0.0 0.0 0.0 xyz
   end
   begin
      id 16
      name RightShoulder
      direction -1.000000 0.000000 0.000000
      length 8.140465
      axis 0.0 0.0 90.0 xyz
      dof rx ry rz
   end
   begin
      id 17
      name RightArm
      direction -1.000000 0.000000 0.000000
      length 10.649840
      axis 0.0 0.0 90.0 xyz
      dof rx ry rz
   end
   begin
      id 18
      name RightForeArm
      direction -1.000000 0.000000 0.000000
      length 8.304624
      axis 0.0 0.0 90.0 xyz
      dof ry rz rx
   end
   begin
      id 19
      name RightHand
      direction -1.000000 0.000000 0.000000
      length 0.000000
      axis 0.0 0.0 90.0 xyz
      dof rx ry rz
   end
   begin
      id 20
      name RightHand_dum1
      direction -1.000000 0.000000 0.000000
      length 3.937000
      axis 0.0 0.0 90.0 xyz
   end
   begin
      id 21
      name RightHand_dum2
      direction 0.000000 0.000000 0.000000
      length 0.000000
      axis 0.0 0.0 90.0 xyz
   end
   begin
      id 22
      name RightHandThumb1
      direction 0.000000 0.000000 1.000000
      length 3.937000
      axis 0.0 0.0 90.0 xyz
      dof rx rz ry
   end
   begin
      id 23
      name LeftShoulder
      direction 1.000000 0.000000 0.000000
      length 8.140465
      axis 0.0 0.0 -90.0 xyz
      dof rx ry rz
   end
   begin
      id 24
      name LeftArm
      direction 1.000000 0.000000 0.000000
      length 10.649840
      axis 0.0 0.0 -90.0 xyz
      dof rx ry rz
   end
   begin
      id 25
      name LeftForeArm
      direction 1.000000 0.000000 0.000000
      length 8.304624
      axis 0.0 0.0 -90.0 xyz
      dof ry rz rx
   end
   begin
      id 26
      name LeftHand
      direction 1.000000 0.000000 0.000000
      length 0.000000
      axis 0.0 0.0 -90.0 xyz
      dof rx ry rz
   end
   begin
      id 27
      name LeftHand_dum1
      direction 1.000000 0.000000 0.000000
      length 3.937000
      axis 0.0 0.0 -90.0 xyz
   end
   begin
      id 28
      name LeftHand_dum2
      direction 0.000000 0.000000 0.000000
      length 0.000000
      axis 0.0 0.0 -90.0 xyz
   end
   begin
      id 29
      name LeftHandThumb1
      direction 0.000000 0.000000 1.000000
      length 3.937000
      axis 0.0 0.0 -90.0 xyz
      dof rx rz ry
   end
   begin
      id 30
      name Head
      direction 0.000000 1.000000 0.000000
      length 4.527550
      axis 0.0 0.0 0.0 xyz
      dof rx ry rz
   end
:hierarchy
   begin
      root RightUpLeg_dum LeftUpLeg_dum Spine_dum
      RightUpLeg_dum RightUpLeg
      LeftUpLeg_dum LeftUpLeg
      Spine_dum Spine
      RightUpLeg RightLeg
      RightLeg RightFoot
      RightFoot RightToeBase
      LeftUpLeg LeftLeg
      LeftLeg LeftFoot
      LeftFoot LeftToeBase
      Spine Spine_dum1 Spine_dum2 Spine_dum3
      Spine_dum1 RightShoulder
      Spine_dum2 LeftShoulder
      Spine_dum3 Head
      RightShoulder RightArm
      RightArm RightForeArm
      RightForeArm RightHand
      RightHand RightHand_dum1 RightHand_dum2
      RightHand_dum2 RightHandThumb1
      LeftShoulder LeftArm
      LeftArm LeftForeArm
      LeftForeArm LeftHand
      LeftHand LeftHand_dum1 LeftHand_dum2
      LeftHand_dum2 LeftHandThumb1
   end

# File created by Blade
# Date/Time:  Wed Jan 21 18:40:08 2015
# Frame Rate: 120.000 fps
#------------------------------------------------------
:FULLY-SPECIFIED
:DEGREES
1
root 0.891055 32.552895 -3.238065 40.549140 3.440402 1.243422
RightUpLeg -31.042605 -10.080277 7.943926
RightLeg -4.055514 -0.000000 0.000000
RightFoot -10.002159 3.625314 18.174216
RightToeBase 19.768296 -0.000000 -0.000000
LeftUpLeg -33.506670 3.422265 -3.002178
LeftLeg 0.722027 -0.000000 -0.000000
LeftFoot -9.976585 -8.162525 -6.857447
LeftToeBase 10.610040 -0.000000 -0.000000
Spine -43.122433 -2.242167 0.393160
RightShoulder -19.009475 15.642999 -48.333317
RightArm 3.885442 -15.038803 38.880202
RightForeArm 3.815003 0.000000 -5.757329
RightHand 4.454667 0.000000 9.448671
RightHandThumb1 -24.326973 -0.000000 -32.862282
LeftShoulder -12.851574 2.746793 41.227510
LeftArm 21.484356 -15.265633 -36.485802
LeftForeArm 21.158983 -0.000000 -4.390929
LeftHand -26.524378 -0.000000 -1.616244
LeftHandThumb1 -26.253704 0.000000 33.147579
Head 5.852745 -2.008132 4.930216
2
root 0.889248 32.552737 -3.238450 40.534293 3.432284 1.250542
RightUpLeg -31.039605 -10.083913 7.937957
RightLeg -4.039209 -0.000000 0.000000
RightFoot -10.015762 3.637632 18.172827
RightToeBase 19.753040 -0.000000 -0.000000
LeftUpLeg -33.506328 3.431685 -3.014422
LeftLeg 0.751484 -0.000000 -0.000000
LeftFoot -9.984889 -8.165324 -6.851207
LeftToeBase 10.609830 -0.000000 -0.000000
Spine -43.133668 -2.262540 0.397732
RightShoulder -19.004048 15.628344 -48.345880
RightArm 3.959856 -15.069953 38.891183
RightForeArm 3.724308 -0.000000 -5.748677
RightHand 4.584262 -0.000000 9.359051
RightHandThumb1 -24.326973 -0.000000 -32.862282
LeftShoulder -12.844653 2.773052 41.256558
LeftArm 21.531008 -15.145623 -36.455632
LeftForeArm 21.107828 0.000000 -4.366825
LeftHand -26.580017 -0.000000 -1.684468
LeftHandThumb1 -26.253704 0.000000 33.147579
Head 5.988129 -2.007973 4.953554
3
root 0.887587 32.552994 -3.237209 40.507607 3.416344 1.245036
RightUpLeg -31.011157 -10.056245 7.918486
RightLeg -4.031060 -0.000000 0.000000
RightFoot -10.012836 3.623226 18.181215
RightToeBase 19.792818 -0.000000 -0.000000
LeftUpLeg -33.484839 3.464899 -3.028450
LeftLeg 0.766681 -0.000000 -0.000000
LeftFoot -9.996673 -8.172561 -6.827182
LeftToeBase 10.556589 -0.000000 -0.000000
Spine -43.139250 -2.266486 0.410446
RightShoulder -18.980459 15.652839 -48.347345
RightArm 3.991340 -15.121832 38.878290
RightForeArm 3.687531 -0.000000 -5.750423
RightHand 4.624377 -0.000000 9.324877
RightHandThumb1 -24.326973 -0.000000 -32.862282
LeftShoulder -12.825476 2.769668 41.267328
LeftArm 21.560503 -15.149186 -36.441756
LeftForeArm 21.096024 -0.000000 -4.350622
LeftHand -26.628199 -0.000000 -1.687231
LeftHandThumb1 -26.253704 0.000000 33.147579
Head 6.129047 -2.003817 4.964649
4
root 0.886144 32.553228 -3.236569 40.488306 3.414421 1.248317
RightUpLeg -30.996452 -10.056051 7.911824
RightLeg -4.019416 -0.000000 0.000000
RightFoot -9.991520 3.633793 18.241029
RightToeBase 19.735262 -0.000000 -0.000000
LeftUpLeg -33.465797 3.466960 -3.031690
LeftLeg 0.768511 -0.000000 -0.000000
LeftFoot -9.996888 -8.154307 -6.837070
LeftToeBase 10.590432 -0.000000 -0.000000
Spine -43.149144 -2.287473 0.427962
RightShoulder -18.961627 15.652975 -48.341854
RightArm 4.048870 -15.153278 38.857422
RightForeArm 3.659766 0.000000 -5.754460
RightHand 4.630460 0.000000 9.361227
RightHandThumb1 -24.326973 -0.000000 -32.862282
LeftShoulder -12.817866 2.773484 41.273172
LeftArm 21.598030 -15.132765 -36.426996
LeftForeArm 21.103331 -0.000000 -4.330352
LeftHand -26.659009 -0.000000 -1.632989
LeftHandThumb1 -26.253704 0.000000 33.147579
Head 6.265313 -1.991112 4.973559
5
root 0.884581 32.552833 -3.236761 40.468055 3.411055 1.250350
RightUpLeg -30.978592 -10.046546 7.900126
RightLeg -4.016261 -0.000000 0.000000
RightFoot -10.029468 3.606944 18.194828
RightToeBase 19.770322 -0.000000 -0.000000
LeftUpLeg -33.456655 3.471930 -3.034331
LeftLeg 0.791313 -0.000000 -0.000000
LeftFoot -10.005451 -8.154585 -6.819593
LeftToeBase 10.583247 -0.000000 -0.000000
Spine -43.152791 -2.301815 0.438993
RightShoulder -18.955034 15.666744 -48.337713
RightArm 4.094364 -15.173270 38.830705
RightForeArm 3.609643 -0.000000 -5.754199
RightHand 4.636650 -0.000000 9.360182
RightHandThumb1 -24.326973 -0.000000 -32.862282
LeftShoulder -12.805628 2.782774 41.271481
LeftArm 21.662245 -15.252153 -36.458204
LeftForeArm 21.277573 -0.000000 -4.321361
LeftHand -26.632168 -0.000000 -1.508261
LeftHandThumb1 -26.253704 0.000000 33.147579
Head 6.377008 -1.994275 4.988859
6
root 0.883207 32.553010 -3.235284 40.446754 3.406500 1.248155
RightUpLeg -30.954007 -10.028471 7.886216
RightLeg -4.007863 -0.000000 0.000000
RightFoot -10.033192 3.594563 18.173514
RightToeBase 19.741412 -0.000000 -0.000000
LeftUpLeg -33.439063 3.486087 -3.038829
LeftLeg 0.802085 -0.000000 -0.000000
LeftFoot -10.015112 -8.146945 -6.810578
LeftToeBase 10.573629 -0.000000 -0.000000
Spine -43.160850 -2.311392 0.453898
RightShoulder -18.951815 15.670230 -48.332339
RightArm 4.155995 -15.198517 38.802444
RightForeArm 3.606963 -0.000000 -5.785909
RightHand 4.665767 0.000000 9.407897
RightHandThumb1 -24.326973 -0.000000 -32.862282
LeftShoulder -12.793736 2.794925 41.279646
LeftArm 21.691533 -15.225989 -36.449039
LeftForeArm 21.381710 -0.000000 -4.268786
LeftHand -26.648443 -0.000000 -1.532014
LeftHandThumb1 -26.253704 0.000000 33.147579
Head 6.500394 -1.979810 5.000373
7
root 0.881572 32.552658 -3.233142 40.426055 3.399904 1.247045
RightUpLeg -30.928303 -10.028174 7.883345
RightLeg -4.014310 -0.000000 0.000000
RightFoot -10.006791 3.611580 18.245170
RightToeBase 19.698787 -0.000000 -0.000000
LeftUpLeg -33.413041 3.483941 -3.032798
LeftLeg 0.798662 -0.000000 -0.000000
LeftFoot -10.024026 -8.133117 -6.822031
LeftToeBase 10.567135 -0.000000 -0.000000
Spine -43.174493 -2.315863 0.463986
RightShoulder -18.944704 15.669736 -48.333169
RightArm 4.200219 -15.208075 38.785607
RightForeArm 3.583209 0.000000 -5.805318
RightHand 4.695860 -0.000000 9.438380
RightHandThumb1 -24.326973 -0.000000 -32.862282
LeftShoulder -12.769712 2.826124 41.279710
LeftArm 21.715846 -15.199497 -36.426878
LeftForeArm 21.380657 -0.000000 -4.204858
LeftHand -26.674564 -0.000000 -1.531551
LeftHandThumb1 -26.253704 0.000000 33.147579
Head 6.631005 -1.970191 5.002930
8
root 0.881444 32.552385 -3.233384 40.415064 3.395679 1.250183
RightUpLeg -30.925771 -10.032228 7.878678
RightLeg -4.000920 -0.000000 0.000000
RightFoot -10.061525 3.621830 18.258477
RightToeBase 19.829847 -0.000000 -0.000000
LeftUpLeg -33.406204 3.476189 -3.035558
LeftLeg 0.810962 -0.000000 -0.000000
LeftFoot -9.990172 -8.063327 -6.622829
LeftToeBase 10.257048 -0.000000 -0.000000
Spine -43.183188 -2.321283 0.471344
RightShoulder -18.952814 15.683440 -48.330951
RightArm 4.238787 -15.218506 38.758478
RightForeArm 3.543893 0.000000 -5.829030
RightHand 4.701903 -0.000000 9.447140
RightHandThumb1 -24.326973 -0.000000 -32.862282
LeftShoulder -12.765587 2.833419 41.291946
LeftArm 21.744124 -15.184706 -36.430532
LeftForeArm 21.396998 -0.000000 -4.149698
LeftHand -26.680423 -0.000000 -1.563136
LeftHandThumb1 -26.253704 0.000000 33.147579
Head 6.724625 -1.976670 5.015174
9
root 0.879952 32.552438 -3.233619 40.406065 3.396746 1.246928
RightUpLeg -30.916913 -10.013559 7.870578
RightLeg -3.992056 -0.000000 0.000000
RightFoot -10.055057 3.588584 18.184416
RightToeBase 19.706847 -0.000000 -0.000000
LeftUpLeg -33.402235 3.478069 -3.027579
LeftLeg 0.818415 -0.000000 -0.000000
LeftFoot -10.032904 -8.117030 -6.794263
LeftToeBase 10.564327 -0.000000 -0.000000
Spine -43.192071 -2.325312 0.481171
RightShoulder -18.971733 15.691893 -48.326610
RightArm 4.279661 -15.252522 38.732910
RightForeArm 3.517504 -0.000000 -5.847913
RightHand 4.695751 -0.000000 9.440094
RightHandThumb1 -24.326973 -0.000000 -32.862282
LeftShoulder -12.766813 2.833082 41.304720
LeftArm 21.779233 -15.144799 -36.427077
LeftForeArm 21.389817 -0.000000 -4.107793
LeftHand -26.714343 0.000000 -1.554723
LeftHandThumb1 -26.253704 0.000000 33.147579
Head 6.808705 -1.988508 5.040302
